<?xml version="1.0" encoding="utf-8"?>
<svg width="167.12878px" height="220.00024px" viewBox="0 0 167.12878 220.00024" version="1.1"
     xmlns:xlink="http://www.w3.org/1999/xlink" xmlns="http://www.w3.org/2000/svg">
    <path d="M24.7831 30.0006L31.3944 30L155.461 30C156.537 29.9999 157.511 29.6853 158.384 29.0563C159.257 28.427 159.864 27.602 160.204 26.5812L166.871 6.58118C167.125 5.81885 167.191 5.04041 167.07 4.24585C166.949 3.45154 166.653 2.72839 166.183 2.07642C165.714 1.42456 165.121 0.915527 164.406 0.549316C163.69 0.183105 162.931 0 162.127 0L33.1875 0C31.9354 0 30.8382 0.412109 29.8958 1.23645C28.9533 2.06067 28.3987 3.09326 28.232 4.33411L24.7831 30.0006L24.7831 30.0006ZM59.1682 70.0001L106.288 70C107.092 70 107.851 70.1831 108.566 70.5492C109.282 70.9153 109.874 71.4243 110.344 72.0762C110.814 72.728 111.11 73.4512 111.231 74.2455C111.352 75.0398 111.286 75.8182 111.032 76.5806L97.7039 116.581C97.3637 117.602 96.7571 118.427 95.8841 119.056C95.011 119.686 94.0364 120 92.9602 120L57.9783 120C56.7175 120 55.6145 120.417 54.6693 121.252C53.7241 122.086 53.1733 123.129 53.0169 124.38L41.0644 220L66.5213 205.189C67.168 204.813 67.7033 204.317 68.1271 203.7C68.551 203.084 68.8228 202.406 68.9425 201.667L76.6338 154.2C76.8299 152.99 77.395 151.987 78.3289 151.192C79.2629 150.397 80.343 150 81.5694 150L114.96 150C116.036 150 117.011 149.686 117.884 149.057C118.757 148.427 119.364 147.602 119.704 146.581L153.031 46.5809C153.285 45.8185 153.352 45.04 153.23 44.2457C153.109 43.4514 152.814 42.7283 152.344 42.0763C151.874 41.4244 151.281 40.9154 150.566 40.5493C149.851 40.1831 149.091 40 148.288 40L52.5015 40C51.6979 40 50.9384 40.1831 50.2231 40.5493C49.5078 40.9154 48.9152 41.4244 48.4453 42.0764C47.9754 42.7283 47.6799 43.4514 47.5587 44.2458C47.4375 45.0404 47.504 45.8188 47.7581 46.5812L54.4248 66.5812C54.7651 67.6021 55.3717 68.4271 56.2447 69.0564C57.1176 69.6855 58.0922 70.0001 59.1682 70.0001L59.1682 70.0001ZM36.0644 180C36.0644 180 10.9728 165.662 10.9728 165.662C10.0929 165.16 9.42744 164.454 8.97631 163.547C8.52517 162.64 8.36474 161.683 8.49502 160.678C8.49502 160.678 14.3329 115.643 14.3329 115.643C14.4253 114.93 14.3667 114.229 14.1569 113.542C13.9472 112.854 13.605 112.24 13.1303 111.7C12.6557 111.16 12.0908 110.741 11.4357 110.445C10.7806 110.148 10.0935 110 9.3744 110C9.3744 110 5.00152 110 5.00152 110C4.19793 110 3.43847 109.817 2.72312 109.451C2.0078 109.085 1.4152 108.576 0.945303 107.924C0.475439 107.272 0.179907 106.549 0.0587063 105.754C-0.0624943 104.96 0.00397298 104.182 0.258093 103.419C0.258093 103.419 6.92477 83.4189 6.92477 83.4189C7.26505 82.3981 7.87168 81.5731 8.74464 80.944C9.61759 80.3148 10.5921 80.0002 11.6682 80.0001C11.6682 80.0001 13.6913 80.0001 13.6913 80.0001C14.9434 80.0001 16.0406 79.588 16.983 78.7637C17.9255 77.9395 18.48 76.9069 18.6468 75.666C18.6468 75.666 23.4393 40.0006 23.4393 40.0006L29.7286 40.0006C32.49 40.0006 35.4366 42.1243 36.31 44.7439C39.6097 54.6411 46.9246 76.5815 46.9246 76.5815C47.265 77.6024 47.8716 78.4274 48.7445 79.0565C49.6175 79.6855 50.5919 80.0001 51.6679 80.0001C51.6679 80.0001 91.1273 80.0001 91.1273 80.0001C91.9309 80.0001 92.6903 80.1832 93.4056 80.5493C94.121 80.9155 94.7136 81.4246 95.1835 82.0765C95.6534 82.7285 95.9489 83.4517 96.0701 84.246C96.1912 85.0405 96.1248 85.819 95.8707 86.5813C95.8707 86.5813 89.204 106.581 89.204 106.581C88.8637 107.602 88.2571 108.427 87.3841 109.057C86.5112 109.686 85.5367 110 84.4606 110C84.4606 110 49.4627 110 49.4627 110C48.2052 110 47.1044 110.416 46.1602 111.246C45.2161 112.077 44.6638 113.115 44.5035 114.363C44.5035 114.363 36.0644 180 36.0644 180Z"
          id="Vector-43" fill="currentColor" fill-rule="evenodd" stroke="none"/>
</svg>